<svg width="330" height="286" viewBox="0 0 330 286" fill="none" xmlns="http://www.w3.org/2000/svg">
<g style="mix-blend-mode:overlay" opacity="0.4">
<rect x="0.5" y="1.5" width="328" height="283" rx="20" fill="#030303"/>
</g>
<path d="M43 1.5H34.68C23.315 1.5 17.6325 1.5 13.2613 3.64142C9.07604 5.69175 5.69175 9.07604 3.64142 13.2613C1.5 17.6325 1.5 23.315 1.5 34.68V39" stroke="white" stroke-width="3" stroke-linecap="round" stroke-linejoin="round"/>
<path d="M43 284H34.68C23.315 284 17.6325 284 13.2613 281.859C9.07604 279.808 5.69175 276.424 3.64142 272.239C1.5 267.868 1.5 262.185 1.5 250.82V246.5" stroke="white" stroke-width="3" stroke-linecap="round" stroke-linejoin="round"/>
<path d="M286.5 1.5H294.82C306.185 1.5 311.868 1.5 316.239 3.64142C320.424 5.69175 323.808 9.07604 325.859 13.2613C328 17.6325 328 23.315 328 34.68V39" stroke="white" stroke-width="3" stroke-linecap="round" stroke-linejoin="round"/>
<path d="M286.5 284H294.82C306.185 284 311.868 284 316.239 281.859C320.424 279.808 323.808 276.424 325.859 272.239C328 267.868 328 262.185 328 250.82V246.5" stroke="white" stroke-width="3" stroke-linecap="round" stroke-linejoin="round"/>
<path d="M204.5 151.5L196.516 143.271C195.545 142.271 194.23 141.709 192.858 141.709C191.485 141.709 190.17 142.271 189.199 143.271L165.692 167.5M142.674 119.5H199.326C202.183 119.5 204.5 121.888 204.5 124.833V162.167C204.5 165.112 202.183 167.5 199.326 167.5H142.674C139.817 167.5 137.5 165.112 137.5 162.167V124.833C137.5 121.888 139.817 119.5 142.674 119.5ZM160.16 135.5C160.16 138.446 157.843 140.833 154.986 140.833C152.128 140.833 149.811 138.446 149.811 135.5C149.811 132.554 152.128 130.167 154.986 130.167C157.843 130.167 160.16 132.554 160.16 135.5Z" stroke="white" stroke-width="3" stroke-linecap="round" stroke-linejoin="round"/>
</svg>
